<svg width="24" height="24" viewBox="0 0 24 24" fill="none" xmlns="http://www.w3.org/2000/svg">
<path d="M2.35139 13.2135C1.99837 10.9162 1.82186 9.76763 2.25617 8.74938C2.69047 7.73112 3.65403 7.03443 5.58114 5.64106L7.02099 4.6C9.41829 2.86667 10.6169 2 12 2C13.3831 2 14.5817 2.86667 16.979 4.6L18.4189 5.64106C20.346 7.03443 21.3095 7.73112 21.7438 8.74938C22.1781 9.76763 22.0016 10.9162 21.6486 13.2135L21.3476 15.1724C20.8471 18.4289 20.5969 20.0572 19.429 21.0286C18.2611 22 16.5537 22 13.1388 22H10.8612C7.44633 22 5.73891 22 4.571 21.0286C3.40309 20.0572 3.15287 18.4289 2.65243 15.1724L2.35139 13.2135Z" stroke="url(#paint0_linear_3005_1129)" stroke-width="1.5" stroke-linejoin="round"/>
<path d="M10 18H14" stroke="url(#paint1_linear_3005_1129)" stroke-width="1.5" stroke-linecap="round" stroke-linejoin="round"/>
<defs>
<linearGradient id="paint0_linear_3005_1129" x1="-7.2857" y1="10.7377" x2="35.2417" y2="10.7377" gradientUnits="userSpaceOnUse">
<stop stop-color="#FF0000"/>
<stop offset="1" stop-color="#330000"/>
</linearGradient>
<linearGradient id="paint1_linear_3005_1129" x1="8.14286" y1="18.4369" x2="16.6484" y2="18.4369" gradientUnits="userSpaceOnUse">
<stop stop-color="#FF0000"/>
<stop offset="1" stop-color="#330000"/>
</linearGradient>
</defs>
</svg>
