<svg width="41" height="40" viewBox="0 0 41 40" fill="none" xmlns="http://www.w3.org/2000/svg">
<path d="M9.36956 16.1385C13.3924 9.02031 15.4037 5.46117 18.1639 4.545C19.6822 4.04099 21.3179 4.04099 22.8362 4.545C25.5964 5.46117 27.6077 9.02031 31.6305 16.1385C35.6534 23.2567 37.6647 26.8159 37.0614 29.7159C36.7294 31.3114 35.9115 32.7584 34.725 33.8499C32.5684 35.8337 28.5457 35.8337 20.5 35.8337C12.4545 35.8337 8.43166 35.8337 6.27498 33.8499C5.08851 32.7584 4.2707 31.3114 3.93875 29.7159C3.33536 26.8159 5.34676 23.2567 9.36956 16.1385Z" stroke="#FF0000" stroke-width="2"/>
<path d="M20.9037 28.3333V21.6667C20.9037 20.881 20.9037 20.4882 20.6596 20.244C20.4156 20 20.0227 20 19.2371 20" stroke="#FF0000" stroke-width="2" stroke-linecap="round" stroke-linejoin="round"/>
<path d="M20.4867 15H20.5017" stroke="#FF0000" stroke-width="2" stroke-linecap="round" stroke-linejoin="round"/>
</svg>
