<svg width="17" height="16" viewBox="0 0 17 16" fill="none" xmlns="http://www.w3.org/2000/svg">
<path d="M6.25 7.3335V9.3335" stroke="#EDEEF9" stroke-width="1.5" stroke-linecap="round" stroke-linejoin="round"/>
<path d="M7.91671 2C5.09689 2 3.68697 2 2.75188 2.79865C2.61909 2.91205 2.49543 3.03572 2.38202 3.16851C1.58337 4.1036 1.58337 5.51351 1.58337 8.33333C1.58337 11.1531 1.58337 12.5631 2.38202 13.4981C2.49543 13.6309 2.61909 13.7546 2.75188 13.868C3.68697 14.6667 5.09689 14.6667 7.91671 14.6667C10.7365 14.6667 12.1464 14.6667 13.0815 13.868C13.2143 13.7546 13.338 13.6309 13.4514 13.4981C14.25 12.5631 14.25 11.1531 14.25 8.33333" stroke="#EDEEF9" stroke-width="1.5" stroke-linecap="round" stroke-linejoin="round"/>
<path d="M8.25 5.3335V11.3335" stroke="#EDEEF9" stroke-width="1.5" stroke-linecap="round" stroke-linejoin="round"/>
<path d="M10.25 6.6665V9.99984" stroke="#EDEEF9" stroke-width="1.5" stroke-linecap="round" stroke-linejoin="round"/>
<path d="M4.25 8V8.66667" stroke="#EDEEF9" stroke-width="1.5" stroke-linecap="round" stroke-linejoin="round"/>
<path d="M10.5087 3.39159C11.4473 3.27478 12.1913 2.53084 12.3081 1.59224C12.3258 1.45015 12.4401 1.3335 12.5833 1.3335C12.7265 1.3335 12.8409 1.45015 12.8586 1.59224C12.9754 2.53084 13.7193 3.27478 14.6579 3.39159C14.8 3.40927 14.9167 3.52364 14.9167 3.66683C14.9167 3.81002 14.8 3.92439 14.6579 3.94207C13.7193 4.05888 12.9754 4.80282 12.8586 5.74142C12.8409 5.88351 12.7265 6.00016 12.5833 6.00016C12.4401 6.00016 12.3258 5.88351 12.3081 5.74142C12.1913 4.80282 11.4473 4.05888 10.5087 3.94207C10.3667 3.92439 10.25 3.81002 10.25 3.66683C10.25 3.52364 10.3667 3.40927 10.5087 3.39159Z" stroke="#EDEEF9" stroke-width="1.5" stroke-linecap="round" stroke-linejoin="round"/>
</svg>
