<svg width="25" height="24" viewBox="0 0 25 24" fill="none" xmlns="http://www.w3.org/2000/svg">
<path d="M22.25 11.5667C22.25 16.8499 17.7722 21.1334 12.25 21.1334C11.6007 21.1343 10.9532 21.0742 10.3154 20.9545C9.85633 20.8682 9.62678 20.8251 9.46653 20.8496C9.30627 20.8741 9.07918 20.9948 8.62499 21.2364C7.34014 21.9197 5.84195 22.161 4.40111 21.893C4.94874 21.2194 5.32275 20.4112 5.48778 19.5448C5.58778 19.0148 5.34 18.5 4.96889 18.1231C3.28333 16.4115 2.25 14.1051 2.25 11.5667C2.25 6.28357 6.72778 2 12.25 2C17.7722 2 22.25 6.28357 22.25 11.5667Z" stroke="#EDEEF9" stroke-width="1.5" stroke-linejoin="round"/>
<path d="M12.2455 12H12.2545M16.241 12H16.25M8.25 12H8.25897" stroke="#EDEEF9" stroke-width="2" stroke-linecap="round" stroke-linejoin="round"/>
</svg>
