<svg width="16" height="16" viewBox="0 0 16 16" fill="none" xmlns="http://www.w3.org/2000/svg">
<path d="M8.00002 14.6668C11.6819 14.6668 14.6667 11.682 14.6667 8.00016C14.6667 4.31826 11.6819 1.3335 8.00002 1.3335C5.0149 1.3335 2.51619 3.29542 1.66669 6.00016H3.33335" stroke="#EDEEF9" stroke-linecap="round" stroke-linejoin="round"/>
<path d="M8 5.3335V8.00016L9.33333 9.3335" stroke="#EDEEF9" stroke-linecap="round" stroke-linejoin="round"/>
<path d="M1.33331 8C1.33331 8.22487 1.34345 8.44727 1.36327 8.66667M5.99998 14.6667C5.77225 14.5917 5.54979 14.5043 5.33331 14.4052M2.13957 11.3333C2.01101 11.0856 1.89633 10.8289 1.79663 10.5641M3.22079 12.871C3.42458 13.0905 3.64202 13.2961 3.87168 13.4861" stroke="#EDEEF9" stroke-linecap="round" stroke-linejoin="round"/>
</svg>
