<svg width="41" height="40" viewBox="0 0 41 40" fill="none" xmlns="http://www.w3.org/2000/svg">
<path d="M13.8335 22.5003H27.1668M13.8335 14.167H20.5002" stroke="#C42720" stroke-width="2" stroke-linecap="round" stroke-linejoin="round"/>
<path d="M10.6648 31.667C8.498 31.4538 6.87475 30.803 5.78611 29.7143C3.8335 27.7618 3.8335 24.619 3.8335 18.3337V17.5003C3.8335 11.2149 3.8335 8.07224 5.78611 6.11961C7.73875 4.16699 10.8814 4.16699 17.1668 4.16699H23.8335C30.1188 4.16699 33.2617 4.16699 35.2142 6.11961C37.1668 8.07224 37.1668 11.2149 37.1668 17.5003V18.3337C37.1668 24.619 37.1668 27.7618 35.2142 29.7143C33.2617 31.667 30.1188 31.667 23.8335 31.667C22.8993 31.6878 22.1553 31.7588 21.4245 31.9253C19.4272 32.3852 17.5777 33.4072 15.7499 34.2985C13.1456 35.5683 11.8435 36.2033 11.0263 35.6088C9.46298 34.4445 10.9911 30.8368 11.3335 29.167" stroke="#C42720" stroke-width="2" stroke-linecap="round"/>
</svg>
