<svg width="54" height="48" viewBox="0 0 54 48" fill="none" xmlns="http://www.w3.org/2000/svg">
<path d="M26.7165 47.3467C26.477 47.2911 26.2511 47.1642 26.0728 46.9657L7.75668 26.5944C7.54529 26.3589 7.43839 26.063 7.43604 25.7666H17.3023L26.7165 47.3467Z" fill="#4D85D6"/>
<path d="M17.3023 25.7665H7.43607C7.43372 25.4683 7.53763 25.1694 7.74757 24.9304L15.5836 16.019C15.6938 15.8939 15.8266 15.793 15.9731 15.7217L17.3023 25.7665Z" fill="#A1E0FF"/>
<path d="M27.0003 15.5948L17.3024 25.7662L15.9731 15.7214C16.1417 15.6388 16.3283 15.5947 16.5199 15.5947H27.0003V15.5948Z" fill="#72C2F2"/>
<path d="M36.6978 25.7666L27.2839 47.3464C27.0976 47.3902 26.9028 47.3902 26.7164 47.3468L17.3022 25.7666H36.6978Z" fill="#72C2F2"/>
<path d="M38.0274 15.7213L36.6981 25.7662L27.0005 15.5947H37.4806C37.6722 15.5947 37.8588 15.6388 38.0274 15.7213Z" fill="#72C2F2"/>
<path d="M46.564 25.7665H36.6978L38.027 15.7217C38.1734 15.793 38.3063 15.8939 38.4164 16.019L46.2525 24.9304C46.4624 25.1695 46.5664 25.4683 46.564 25.7665Z" fill="#A1E0FF"/>
<path d="M46.5643 25.7666C46.5619 26.0631 46.455 26.3589 46.2436 26.5944L27.9275 46.9657C27.7492 47.1639 27.5233 47.2911 27.2842 47.3464L36.6981 25.7666L46.5643 25.7666Z" fill="#4D85D6"/>
<path d="M36.6978 25.7662H17.3022L27.0002 15.5947L36.6978 25.7662Z" fill="#A1E0FF"/>
<path d="M46.7179 24.5197L38.882 15.608C38.5275 15.2049 38.0166 14.9736 37.4804 14.9736H16.52C15.9837 14.9736 15.4729 15.2049 15.1184 15.608L7.28246 24.5197C6.65521 25.233 6.6611 26.3036 7.2962 27.01L25.6123 47.3814C25.966 47.7747 26.4718 48.0004 27.0002 48.0004C27.5285 48.0004 28.0344 47.7747 28.388 47.3814L46.7042 27.01C47.3392 26.3036 47.3451 25.233 46.7179 24.5197ZM45.615 25.1451H37.4057L38.4795 17.03L45.615 25.1451ZM27.0002 46.4455L18.2501 26.3876H35.7502L27.0002 46.4455ZM18.7524 25.1451L27.0001 16.4943L35.2479 25.145L18.7524 25.1451ZM28.45 16.2162H37.3363L36.2532 24.4006L28.45 16.2162ZM17.7471 24.4006L16.664 16.2162H25.5503L17.7471 24.4006ZM16.8967 26.3876L24.8993 44.732L8.40572 26.3876H16.8967ZM37.1036 26.3876H45.5946L29.1012 44.7317L37.1036 26.3876ZM15.5208 17.03L16.5947 25.1451H8.38525L15.5208 17.03Z" fill="#16181E"/>
<path d="M33.9895 4.65582C30.5048 5.29865 29.9847 5.81975 29.3431 9.31163C28.7016 5.81978 28.1816 5.29865 24.6968 4.65582C28.1816 4.01298 28.7016 3.49188 29.3431 0C29.9847 3.49188 30.5048 4.01298 33.9895 4.65582Z" fill="#72C2F2"/>
<path d="M53.9998 12.6861C50.515 13.3289 49.9949 13.85 49.3534 17.3419C48.7119 13.8501 48.1918 13.3289 44.707 12.6861C48.1918 12.0433 48.7119 11.5222 49.3534 8.03027C49.995 11.5222 50.515 12.0433 53.9998 12.6861Z" fill="#72C2F2"/>
<path d="M9.29279 12.6861C5.80801 13.3289 5.28793 13.85 4.64639 17.3419C4.00486 13.8501 3.48481 13.3289 0 12.6861C3.48478 12.0433 4.00486 11.5222 4.64639 8.03027C5.28793 11.5222 5.80801 12.0433 9.29279 12.6861Z" fill="#72C2F2"/>
<path d="M20.6537 9.31156C18.5398 9.70152 18.2243 10.0176 17.8351 12.1358C17.446 10.0176 17.1305 9.70152 15.0166 9.31156C17.1305 8.9216 17.446 8.60551 17.8351 6.4873C18.2243 8.60548 18.5398 8.9216 20.6537 9.31156Z" fill="#72C2F2"/>
<path d="M44.3114 2.98754C43.391 3.15732 43.2536 3.29497 43.0842 4.21726C42.9147 3.29497 42.7774 3.15732 41.8569 2.98754C42.7774 2.81775 42.9147 2.6801 43.0842 1.75781C43.2536 2.6801 43.391 2.81775 44.3114 2.98754Z" fill="#72C2F2"/>
<path d="M14.9218 1.75804C14.0013 1.92783 13.864 2.06548 13.6945 2.98777C13.5251 2.06548 13.3877 1.92783 12.4673 1.75804C13.3877 1.58826 13.5251 1.45061 13.6945 0.52832C13.864 1.45061 14.0013 1.58826 14.9218 1.75804Z" fill="#72C2F2"/>
<path d="M42.6131 9.31156C40.4992 9.70152 40.1837 10.0176 39.7946 12.1358C39.4054 10.0176 39.09 9.70152 36.9761 9.31156C39.09 8.9216 39.4054 8.60551 39.7946 6.4873C40.1837 8.60548 40.4992 8.9216 42.6131 9.31156Z" fill="#72C2F2"/>
</svg>
