<svg width="29" height="24" viewBox="0 0 29 24" fill="none" xmlns="http://www.w3.org/2000/svg">
<path d="M14.3792 23.5387C14.2107 23.4994 14.0518 23.4098 13.9263 23.2697L1.03716 8.88998C0.888408 8.72374 0.813181 8.5149 0.811523 8.30566H7.75442L14.3792 23.5387Z" fill="#4D85D6"/>
<path d="M7.75445 8.30626H0.811551C0.809893 8.09576 0.883017 7.88483 1.03075 7.71609L6.54501 1.4257C6.62251 1.33736 6.71601 1.26614 6.81906 1.21582L7.75445 8.30626Z" fill="#A1E0FF"/>
<path d="M14.5787 1.126L7.75424 8.30583L6.81885 1.21537C6.93749 1.1571 7.0688 1.12598 7.20364 1.12598H14.5787V1.126Z" fill="#72C2F2"/>
<path d="M21.4031 8.30566L14.7785 23.5385C14.6474 23.5694 14.5103 23.5694 14.3792 23.5387L7.75439 8.30566H21.4031Z" fill="#72C2F2"/>
<path d="M22.3383 1.21535L21.4029 8.30581L14.5786 1.12598H21.9535C22.0883 1.12598 22.2196 1.1571 22.3383 1.21535Z" fill="#72C2F2"/>
<path d="M28.3462 8.30628H21.4033L22.3387 1.21582C22.4418 1.26614 22.5353 1.33736 22.6128 1.4257L28.127 7.71609C28.2748 7.88486 28.3479 8.09578 28.3462 8.30628Z" fill="#A1E0FF"/>
<path d="M28.3458 8.30568C28.3442 8.51495 28.2689 8.72378 28.1202 8.89L15.231 23.2697C15.1056 23.4097 14.9466 23.4995 14.7783 23.5385L21.4029 8.30566L28.3458 8.30568Z" fill="#4D85D6"/>
<path d="M21.4031 8.30581H7.75439L14.5789 1.12598L21.4031 8.30581Z" fill="#A1E0FF"/>
<path d="M28.4541 7.42587L22.94 1.13531C22.6905 0.850732 22.331 0.6875 21.9537 0.6875H7.20377C6.82642 0.6875 6.46692 0.850732 6.21746 1.13531L0.703307 7.42587C0.261907 7.92938 0.266052 8.68511 0.712977 9.18378L13.6021 23.5636C13.851 23.8412 14.2069 24.0005 14.5787 24.0005C14.9505 24.0005 15.3065 23.8412 15.5554 23.5636L28.4445 9.18376C28.8914 8.68511 28.8955 7.92938 28.4541 7.42587ZM27.6781 7.86733H21.9011L22.6568 2.13903L27.6781 7.86733ZM14.5788 22.903L8.42127 8.74445H20.7362L14.5788 22.903ZM8.77473 7.86733L14.5787 1.76091L20.3827 7.86731L8.77473 7.86733ZM15.599 1.56462H21.8523L21.0901 7.34186L15.599 1.56462ZM8.06731 7.34184L7.30515 1.5646H13.5585L8.06731 7.34184ZM7.46887 8.74445L13.1004 21.6934L1.49375 8.74445H7.46887ZM21.6886 8.74445H27.6637L16.0573 21.6932L21.6886 8.74445ZM6.50066 2.13903L7.25636 7.86733H1.47934L6.50066 2.13903Z" fill="#16181E"/>
</svg>
