<svg width="17" height="16" viewBox="0 0 17 16" fill="none" xmlns="http://www.w3.org/2000/svg">
<path d="M1.58337 9.6665C1.58337 7.47484 1.58337 6.37902 2.18868 5.64146C2.29949 5.50643 2.4233 5.38262 2.55833 5.27181C3.29589 4.6665 4.39172 4.6665 6.58337 4.6665H9.91671C12.1084 4.6665 13.2042 4.6665 13.9418 5.27181C14.0768 5.38262 14.2006 5.50643 14.3114 5.64146C14.9167 6.37902 14.9167 7.47484 14.9167 9.6665C14.9167 11.8582 14.9167 12.954 14.3114 13.6916C14.2006 13.8266 14.0768 13.9504 13.9418 14.0612C13.2042 14.6665 12.1084 14.6665 9.91671 14.6665H6.58337C4.39172 14.6665 3.29589 14.6665 2.55833 14.0612C2.4233 13.9504 2.29949 13.8266 2.18868 13.6916C1.58337 12.954 1.58337 11.8582 1.58337 9.6665Z" stroke="#EDEEF9" stroke-width="1.5" stroke-linecap="round"/>
<path d="M8.25 4.66683V3.3335C8.25 2.96531 8.54847 2.66683 8.91667 2.66683C9.28487 2.66683 9.58333 2.36835 9.58333 2.00016V1.3335" stroke="#EDEEF9" stroke-width="1.5" stroke-linecap="round" stroke-linejoin="round"/>
<path d="M6.91663 10.6665L5.91663 9.6665M5.91663 9.6665L4.91663 8.6665M5.91663 9.6665L4.91663 10.6665M5.91663 9.6665L6.91663 8.6665" stroke="#EDEEF9" stroke-width="1.5" stroke-linecap="round"/>
<path d="M11.5834 10.3333V9" stroke="#EDEEF9" stroke-width="1.5" stroke-linecap="round" stroke-linejoin="round"/>
</svg>
