<svg width="17" height="16" viewBox="0 0 17 16" fill="none" xmlns="http://www.w3.org/2000/svg">
<path d="M6.58963 1.66699C4.81211 1.70749 3.77388 1.8767 3.06451 2.58361C2.44366 3.20231 2.23612 4.07203 2.16675 5.46699M10.4105 1.66699C12.1881 1.70749 13.2263 1.8767 13.9357 2.58361C14.5565 3.20231 14.7641 4.07203 14.8334 5.46699M10.4105 14.3337C12.1881 14.2931 13.2263 14.1239 13.9357 13.4171C14.5565 12.7983 14.7641 11.9286 14.8334 10.5337M6.58963 14.3337C4.81211 14.2931 3.77388 14.1239 3.06451 13.4171C2.44366 12.7983 2.23612 11.9286 2.16675 10.5337" stroke="#EDEEF9" stroke-width="1.5" stroke-linecap="round" stroke-linejoin="round"/>
<path d="M5.5 11.3337C7.05447 9.70553 9.92885 9.62886 11.5 11.3337M10.1634 6.33366C10.1634 7.25413 9.41611 8.00033 8.49438 8.00033C7.57258 8.00033 6.82531 7.25413 6.82531 6.33366C6.82531 5.41319 7.57258 4.66699 8.49438 4.66699C9.41611 4.66699 10.1634 5.41319 10.1634 6.33366Z" stroke="#EDEEF9" stroke-width="1.5" stroke-linecap="round"/>
</svg>
