<svg width="16" height="16" viewBox="0 0 16 16" fill="none" xmlns="http://www.w3.org/2000/svg">
<path d="M8 14.6663C11.6819 14.6663 14.6667 11.6816 14.6667 7.99967C14.6667 4.31778 11.6819 1.33301 8 1.33301C4.3181 1.33301 1.33333 4.31778 1.33333 7.99967C1.33333 11.6816 4.3181 14.6663 8 14.6663Z" stroke="#20C47F" stroke-width="1.5"/>
<path d="M4.66667 5.58653H7.66667M7.66667 5.58653H9.66667M7.66667 5.58653V4.66699M11.3333 5.58653H9.66667M9.66667 5.58653C9.315 6.84406 8.5786 8.03279 7.73807 9.07753M7.73807 9.07753C7.04207 9.94259 6.27471 10.7089 5.59525 11.3337M7.73807 9.07753C7.30954 8.57506 6.70954 7.76206 6.5381 7.39426M7.73807 9.07753L9.0238 10.4141" stroke="#20C47F" stroke-width="1.5" stroke-linecap="round" stroke-linejoin="round"/>
</svg>
