<svg width="41" height="40" viewBox="0 0 41 40" fill="none" xmlns="http://www.w3.org/2000/svg">
<path d="M7.6131 31.4078C7.9879 34.1917 10.2936 36.3725 13.0995 36.5015C15.4605 36.61 17.8589 36.6667 20.5001 36.6667C23.1412 36.6667 25.5396 36.61 27.9006 36.5015C30.7066 36.3725 33.0122 34.1917 33.3871 31.4078C33.6317 29.5912 33.8334 27.7293 33.8334 25.8333C33.8334 23.9373 33.6317 22.0755 33.3871 20.2588C33.0122 17.475 30.7066 15.2941 27.9006 15.1651C25.5396 15.0566 23.1412 15 20.5001 15C17.8589 15 15.4605 15.0566 13.0995 15.1651C10.2936 15.2941 7.9879 17.475 7.6131 20.2588C7.3685 22.0755 7.16675 23.9373 7.16675 25.8333C7.16675 27.7293 7.3685 29.5912 7.6131 31.4078Z" stroke="#C42720" stroke-width="2"/>
<path d="M13 14.9997V10.833C13 6.69087 16.3579 3.33301 20.5 3.33301C24.6422 3.33301 28 6.69087 28 10.833V14.9997" stroke="#C42720" stroke-width="2" stroke-linecap="round" stroke-linejoin="round"/>
<path d="M27.1667 25.8164V25.8331" stroke="#FF0000" stroke-width="2" stroke-linecap="round" stroke-linejoin="round"/>
<path d="M20.5 25.8164V25.8331" stroke="#FF0000" stroke-width="2" stroke-linecap="round" stroke-linejoin="round"/>
<path d="M13.8333 25.8164V25.8331" stroke="#FF0000" stroke-width="2" stroke-linecap="round" stroke-linejoin="round"/>
</svg>
