<svg width="16" height="16" viewBox="0 0 16 16" fill="none" xmlns="http://www.w3.org/2000/svg">
<path d="M12 7.33103C11.7385 6.7975 11.0321 6.01399 9.5802 6.04733C9.5802 6.04733 8.42873 5.99731 7.12706 5.99731C5.82543 5.99731 5.21605 6.02779 4.17332 6.04733C3.50581 6.03065 2.23752 6.1807 1.65345 7.56443C1.26963 8.73137 1.25294 11.182 1.48657 12.4157C1.53664 13.0492 1.87039 13.9328 2.90504 14.3996C3.53918 14.733 4.55715 14.5996 5.32479 14.6664M3.98976 5.46383C3.95638 3.88007 3.88963 2.62973 5.7253 1.59611C6.34276 1.34605 7.26059 1.12932 8.39539 1.6628C9.58019 2.37966 9.7278 3.13831 9.83053 3.32992C10.1142 4.08013 9.96406 5.14708 9.9974 5.58053" stroke="#C42720" stroke-width="1.5" stroke-linecap="round"/>
</svg> 