<svg width="40" height="40" viewBox="0 0 40 40" fill="none" xmlns="http://www.w3.org/2000/svg">
<path d="M11.6666 14.1666L16.57 17.0656C19.4286 18.7558 20.5713 18.7558 23.43 17.0656L28.3333 14.1666" stroke="#C42720" stroke-width="2" stroke-linecap="round" stroke-linejoin="round"/>
<path d="M3.35965 22.4593C3.46862 27.5685 3.52308 30.1231 5.4083 32.0155C7.29352 33.908 9.91727 33.9738 15.1648 34.1056C18.3989 34.187 21.6012 34.187 24.8354 34.1056C30.0829 33.9738 32.7066 33.908 34.5917 32.0155C36.4771 30.1231 36.5316 27.5685 36.6404 22.4593C36.6756 20.8165 36.6756 19.1833 36.6404 17.5406C36.5316 12.4314 36.4771 9.87674 34.5917 7.98435C32.7066 6.09197 30.0829 6.02605 24.8354 5.8942C21.6012 5.81294 18.3989 5.81294 15.1647 5.89419C9.91727 6.02602 7.29352 6.09194 5.4083 7.98434C3.52308 9.87672 3.4686 12.4313 3.35965 17.5405C3.32462 19.1833 3.32462 20.8165 3.35965 22.4593Z" stroke="#C42720" stroke-width="2" stroke-linejoin="round"/>
</svg>
