<svg width="16" height="16" viewBox="0 0 16 16" fill="none" xmlns="http://www.w3.org/2000/svg">
<path d="M1.68662 9.84607C1.54485 10.7754 2.17867 11.4205 2.95471 11.7419C5.92988 12.9745 10.0701 12.9745 13.0453 11.7419C13.8213 11.4205 14.4551 10.7754 14.3134 9.84607C14.2263 9.27494 13.7955 8.79934 13.4763 8.33494C13.0582 7.71921 13.0167 7.04754 13.0166 6.33301C13.0166 3.57158 10.7706 1.33301 8.00001 1.33301C5.22943 1.33301 2.98343 3.57158 2.98343 6.33301C2.98336 7.04754 2.94182 7.71921 2.52375 8.33494C2.20457 8.79934 1.77375 9.27494 1.68662 9.84607Z" stroke="#C1C420" stroke-width="1.5" stroke-linecap="round" stroke-linejoin="round"/>
<path d="M5.33333 12.667C5.63899 13.8171 6.71699 14.667 7.99999 14.667C9.283 14.667 10.361 13.8171 10.6667 12.667" stroke="#C1C420" stroke-width="1.5" stroke-linecap="round" stroke-linejoin="round"/>
</svg>
