<svg width="16" height="16" viewBox="0 0 16 16" fill="none" xmlns="http://www.w3.org/2000/svg">
<path d="M8.00004 14.6667C11.6667 14.6667 14.6667 11.6667 14.6667 8.00004C14.6667 4.33337 11.6667 1.33337 8.00004 1.33337C4.33337 1.33337 1.33337 4.33337 1.33337 8.00004C1.33337 11.6667 4.33337 14.6667 8.00004 14.6667Z" stroke="url(#paint0_linear_3005_9851)" stroke-width="1.5" stroke-linecap="round" stroke-linejoin="round"/>
<path d="M8 14C11.3 14 14 11.3 14 8C14 4.7 11.3 2 8 2C4.7 2 2 4.7 2 8C2 11.3 4.7 14 8 14Z" fill="url(#paint1_linear_3005_9851)" stroke="#272727" stroke-width="1.5" stroke-linecap="round" stroke-linejoin="round"/>
<defs>
<linearGradient id="paint0_linear_3005_9851" x1="-4.8571" y1="7.15852" x2="23.4945" y2="7.15852" gradientUnits="userSpaceOnUse">
<stop stop-color="#FF0000"/>
<stop offset="1" stop-color="#330000"/>
</linearGradient>
<linearGradient id="paint1_linear_3005_9851" x1="-3.57143" y1="7.24263" x2="21.9451" y2="7.24263" gradientUnits="userSpaceOnUse">
<stop stop-color="#FF0000"/>
<stop offset="1" stop-color="#330000"/>
</linearGradient>
</defs>
</svg>
