<svg width="16" height="16" viewBox="0 0 16 16" fill="none" xmlns="http://www.w3.org/2000/svg">
<path d="M4.66675 11.9998V7.6665C4.66675 7.11424 4.21903 6.6665 3.66675 6.6665C3.11446 6.6665 2.66675 7.11424 2.66675 7.6665V10.6665C2.66675 11.4029 3.2637 11.9998 4.00008 11.9998H4.66675Z" stroke="#EDEEF9" stroke-width="1.5" stroke-linecap="round" stroke-linejoin="round"/>
<path d="M13.3333 10.6665V7.6665C13.3333 7.11424 12.8855 6.6665 12.3333 6.6665C11.781 6.6665 11.3333 7.11424 11.3333 7.6665V11.9998H11.9999C12.7363 11.9998 13.3333 11.4029 13.3333 10.6665Z" stroke="#EDEEF9" stroke-width="1.5" stroke-linecap="round" stroke-linejoin="round"/>
<path d="M11.3334 9.3335H4.66675V12.0002H11.3334V9.3335Z" stroke="#EDEEF9" stroke-width="1.5" stroke-linecap="round" stroke-linejoin="round"/>
<path d="M9.66659 14.6667H6.33325V12H9.66659V14.6667Z" stroke="#EDEEF9" stroke-width="1.5" stroke-linecap="round" stroke-linejoin="round"/>
<path d="M4.66675 14.6665H11.3334" stroke="#EDEEF9" stroke-width="1.5" stroke-linecap="round" stroke-linejoin="round"/>
<path d="M12.3334 6.66683V5.3335C12.3334 3.44788 12.3334 2.50507 11.7476 1.91928C11.1618 1.3335 10.219 1.3335 8.33341 1.3335H7.66675C5.78113 1.3335 4.83832 1.3335 4.25253 1.91928C3.66675 2.50507 3.66675 3.44788 3.66675 5.3335V6.66683" stroke="#EDEEF9" stroke-width="1.5" stroke-linecap="round" stroke-linejoin="round"/>
</svg>
