<svg width="16" height="16" viewBox="0 0 16 16" fill="none" xmlns="http://www.w3.org/2000/svg">
<path d="M2 8C5 8 8 5 8 2C8 5 11 8 14 8C11 8 8 11 8 14C8 11 5 8 2 8Z" stroke="#EDEEF9" stroke-linejoin="round"/>
<path d="M1.33331 13.0002C1.88887 13.0002 2.99998 11.889 2.99998 11.3335C2.99998 11.889 4.11109 13.0002 4.66665 13.0002C4.11109 13.0002 2.99998 14.1113 2.99998 14.6668C2.99998 14.1113 1.88887 13.0002 1.33331 13.0002Z" stroke="#EDEEF9" stroke-linejoin="round"/>
<path d="M10.6667 3.3335C11.3334 3.3335 12.6667 2.00016 12.6667 1.3335C12.6667 2.00016 14 3.3335 14.6667 3.3335C14 3.3335 12.6667 4.66683 12.6667 5.3335C12.6667 4.66683 11.3334 3.3335 10.6667 3.3335Z" stroke="#EDEEF9" stroke-linejoin="round"/>
</svg>
