<svg width="110" height="73" viewBox="0 0 110 73" fill="none" xmlns="http://www.w3.org/2000/svg">
<rect x="20.5" width="72" height="72" rx="36" fill="#EDEEF9" fill-opacity="0.92"/>
<rect x="21" y="0.5" width="71" height="71" rx="35.5" stroke="#C42720" stroke-opacity="0.12"/>
<path d="M6.61958 1.17082C6.73932 0.802295 7.26068 0.802296 7.38042 1.17082L8.70631 5.25147C8.75986 5.41628 8.91344 5.52786 9.08673 5.52786H13.3774C13.7649 5.52786 13.926 6.02371 13.6125 6.25147L10.1413 8.77345C10.0011 8.87531 9.94243 9.05586 9.99598 9.22066L11.3219 13.3013C11.4416 13.6698 11.0198 13.9763 10.7063 13.7485L7.23511 11.2265C7.09492 11.1247 6.90508 11.1247 6.76489 11.2265L3.29368 13.7485C2.98019 13.9763 2.5584 13.6698 2.67814 13.3013L4.00402 9.22067C4.05757 9.05586 3.99891 8.87531 3.85872 8.77345L0.387506 6.25147C0.0740204 6.02371 0.235132 5.52786 0.622621 5.52786H4.91327C5.08656 5.52786 5.24014 5.41628 5.29369 5.25147L6.61958 1.17082Z" fill="#C42720"/>
<path d="M102.62 57.1708C102.739 56.8023 103.261 56.8023 103.38 57.1708L104.706 61.2515C104.76 61.4163 104.913 61.5279 105.087 61.5279H109.377C109.765 61.5279 109.926 62.0237 109.612 62.2515L106.141 64.7735C106.001 64.8753 105.942 65.0559 105.996 65.2207L107.322 69.3013C107.442 69.6698 107.02 69.9763 106.706 69.7485L103.235 67.2265C103.095 67.1247 102.905 67.1247 102.765 67.2265L99.2937 69.7485C98.9802 69.9763 98.5584 69.6698 98.6781 69.3013L100.004 65.2207C100.058 65.0559 99.9989 64.8753 99.8587 64.7735L96.3875 62.2515C96.074 62.0237 96.2351 61.5279 96.6226 61.5279H100.913C101.087 61.5279 101.24 61.4163 101.294 61.2515L102.62 57.1708Z" fill="#C42720"/>
<path d="M102.62 1.17082C102.739 0.802296 103.261 0.802296 103.38 1.17082L104.482 4.56049C104.535 4.7253 104.689 4.83688 104.862 4.83688H108.426C108.814 4.83688 108.975 5.33273 108.661 5.56049L105.778 7.65542C105.638 7.75728 105.579 7.93782 105.633 8.10263L106.734 11.4923C106.854 11.8608 106.432 12.1673 106.119 11.9395L103.235 9.84458C103.095 9.74273 102.905 9.74273 102.765 9.84458L99.8815 11.9395C99.568 12.1673 99.1462 11.8608 99.2659 11.4923L100.367 8.10263C100.421 7.93782 100.362 7.75728 100.222 7.65542L97.3386 5.56049C97.0251 5.33273 97.1862 4.83688 97.5737 4.83688H101.138C101.311 4.83688 101.465 4.7253 101.518 4.56049L102.62 1.17082Z" fill="#C31C7B"/>
<path d="M8.61958 61.1708C8.73932 60.8023 9.26068 60.8023 9.38042 61.1708L10.4818 64.5605C10.5353 64.7253 10.6889 64.8369 10.8622 64.8369H14.4263C14.8138 64.8369 14.9749 65.3327 14.6614 65.5605L11.778 67.6554C11.6378 67.7573 11.5792 67.9378 11.6327 68.1026L12.7341 71.4923C12.8538 71.8608 12.432 72.1673 12.1185 71.9395L9.23511 69.8446C9.09492 69.7427 8.90508 69.7427 8.76489 69.8446L5.88146 71.9395C5.56798 72.1673 5.14618 71.8608 5.26593 71.4923L6.3673 68.1026C6.42085 67.9378 6.36218 67.7573 6.22199 67.6554L3.33856 65.5605C3.02508 65.3327 3.18619 64.8369 3.57368 64.8369H7.13778C7.31108 64.8369 7.46466 64.7253 7.51821 64.5605L8.61958 61.1708Z" fill="#C31C7B"/>
<path d="M44.8335 40.167C44.8335 40.167 47.3335 40.167 50.6668 46.0003C50.6668 46.0003 59.9315 30.7225 68.1668 27.667" stroke="#C42720" stroke-width="4" stroke-linecap="round" stroke-linejoin="round"/>
</svg>
