<svg width="17" height="16" viewBox="0 0 17 16" fill="none" xmlns="http://www.w3.org/2000/svg">
<path d="M2.75 7.3335C2.75 5.44788 2.75 4.50507 3.33579 3.91928C3.92157 3.3335 4.86438 3.3335 6.75 3.3335H8.08333C9.96893 3.3335 10.9117 3.3335 11.4975 3.91928C12.0833 4.50507 12.0833 5.44788 12.0833 7.3335V10.6668C12.0833 12.5524 12.0833 13.4952 11.4975 14.081C10.9117 14.6668 9.96893 14.6668 8.08333 14.6668H6.75C4.86438 14.6668 3.92157 14.6668 3.33579 14.081C2.75 13.4952 2.75 12.5524 2.75 10.6668V7.3335Z" stroke="#EDEEF9" stroke-width="1.5"/>
<path d="M6.11286 7.84117L6.36824 7.53637C6.8541 6.95644 7.09703 6.6665 7.41663 6.6665C7.73623 6.6665 7.97916 6.95644 8.46503 7.53637L8.72036 7.84117C9.18456 8.39517 9.41663 8.67224 9.41663 8.99984C9.41663 9.32744 9.18456 9.6045 8.72036 10.1585L8.46503 10.4633C7.97916 11.0432 7.73623 11.3332 7.41663 11.3332C7.09703 11.3332 6.8541 11.0432 6.36824 10.4633L6.11286 10.1585C5.64871 9.6045 5.41663 9.32744 5.41663 8.99984C5.41663 8.67224 5.64871 8.39517 6.11286 7.84117Z" stroke="#EDEEF9" stroke-width="1.5"/>
<path d="M12.0329 12.6668C12.7634 12.2584 13.0119 11.3606 13.5088 9.56476L14.2116 7.02516C14.7086 5.22935 14.9571 4.33146 14.5353 3.6241C14.1135 2.91673 13.1862 2.67614 11.3316 2.19496L10.0201 1.85472C8.16543 1.37354 7.23813 1.13295 6.50757 1.54134C5.98745 1.83211 5.71168 2.371 5.41663 3.3054" stroke="#EDEEF9" stroke-width="1.5"/>
</svg>
