<svg width="17" height="16" viewBox="0 0 17 16" fill="none" xmlns="http://www.w3.org/2000/svg">
<path d="M8.91665 4.66667C8.91665 6.13943 7.72271 7.33333 6.24998 7.33333C4.77722 7.33333 3.58331 6.13943 3.58331 4.66667C3.58331 3.19391 4.77722 2 6.24998 2C7.72271 2 8.91665 3.19391 8.91665 4.66667Z" stroke="#EDEEF9" stroke-width="1.5"/>
<path d="M10.25 7.33333C11.7227 7.33333 12.9167 6.13943 12.9167 4.66667C12.9167 3.19391 11.7227 2 10.25 2" stroke="#EDEEF9" stroke-width="1.5" stroke-linecap="round" stroke-linejoin="round"/>
<path d="M7.58331 9.3335H4.91665C3.0757 9.3335 1.58331 10.8259 1.58331 12.6668C1.58331 13.4032 2.18027 14.0002 2.91665 14.0002H9.58331C10.3197 14.0002 10.9166 13.4032 10.9166 12.6668C10.9166 10.8259 9.42425 9.3335 7.58331 9.3335Z" stroke="#EDEEF9" stroke-width="1.5" stroke-linejoin="round"/>
<path d="M11.5833 9.3335C13.4242 9.3335 14.9166 10.8259 14.9166 12.6668C14.9166 13.4032 14.3197 14.0002 13.5833 14.0002H12.5833" stroke="#EDEEF9" stroke-width="1.5" stroke-linecap="round" stroke-linejoin="round"/>
</svg>
