<svg width="17" height="16" viewBox="0 0 17 16" fill="none" xmlns="http://www.w3.org/2000/svg">
<path d="M5.13505 10.3212C4.19187 10.8828 1.71891 12.0296 3.22511 13.4646C3.96088 14.1655 4.78033 14.6668 5.81058 14.6668H11.6894C12.7197 14.6668 13.5391 14.1655 14.2749 13.4646C15.7811 12.0296 13.3081 10.8828 12.3649 10.3212C10.1532 9.00425 7.3468 9.00425 5.13505 10.3212Z" stroke="#EDEEF9" stroke-width="1.5" stroke-linecap="round" stroke-linejoin="round"/>
<path d="M11.75 4.3335C11.75 5.99035 10.4069 7.3335 8.75 7.3335C7.09315 7.3335 5.75 5.99035 5.75 4.3335C5.75 2.67664 7.09315 1.3335 8.75 1.3335C10.4069 1.3335 11.75 2.67664 11.75 4.3335Z" stroke="#EDEEF9" stroke-width="1.5"/>
</svg>
