<svg width="16" height="16" viewBox="0 0 16 16" fill="none" xmlns="http://www.w3.org/2000/svg">
<path d="M6.08957 1.66699C4.31205 1.70749 3.27382 1.8767 2.56445 2.58361C1.9436 3.20231 1.73606 4.07203 1.66669 5.46699M9.91047 1.66699C11.688 1.70749 12.7262 1.8767 13.4356 2.58361C14.0565 3.20231 14.264 4.07203 14.3333 5.46699M9.91047 14.3337C11.688 14.2931 12.7262 14.1239 13.4356 13.4171C14.0565 12.7983 14.264 11.9286 14.3333 10.5337M6.08957 14.3337C4.31205 14.2931 3.27382 14.1239 2.56445 13.4171C1.9436 12.7983 1.73606 11.9286 1.66669 10.5337" stroke="#20C4A6" stroke-width="1.5" stroke-linecap="round" stroke-linejoin="round"/>
<path d="M5.00002 11.3337C6.55448 9.70553 9.42886 9.62886 11 11.3337M9.6634 6.33366C9.6634 7.25413 8.91613 8.00033 7.9944 8.00033C7.0726 8.00033 6.32533 7.25413 6.32533 6.33366C6.32533 5.41319 7.0726 4.66699 7.9944 4.66699C8.91613 4.66699 9.6634 5.41319 9.6634 6.33366Z" stroke="#20C4A6" stroke-width="1.5" stroke-linecap="round"/>
</svg>
