<svg width="48" height="49" viewBox="0 0 48 49" fill="none" xmlns="http://www.w3.org/2000/svg">
<path d="M36.1762 29.2759V34.6266C36.1762 35.7073 37.0554 36.5868 38.1364 36.5868H48V45.6506C48 47.2245 46.7244 48.5002 45.1506 48.5002H3.53821C1.96437 48.5002 0.688721 47.2245 0.688721 45.6506L0.688721 18.252C0.688721 16.6781 1.96437 15.4023 3.53821 15.4023H45.1506C46.7244 15.4023 48 16.6781 48 18.252V27.3157H38.1364C37.0554 27.3157 36.1762 28.1952 36.1762 29.2759Z" fill="#FFB100"/>
<path d="M38.1356 28.2451C37.5661 28.2451 37.1025 28.7087 37.1025 29.2782V34.6289C37.1025 35.1984 37.5661 35.662 38.1356 35.662H47.9993V28.2451H38.1356ZM41.19 33.5065C40.3323 33.5065 39.6371 32.8113 39.6371 31.9536C39.6371 31.0958 40.3323 30.4006 41.19 30.4006C42.0474 30.4006 42.7426 31.0958 42.7426 31.9536C42.7426 32.8113 42.0474 33.5065 41.19 33.5065Z" fill="#48BF5B"/>
<path d="M4.11279 14.0887L38.4824 5.55725C39.6679 5.26299 40.8147 6.15997 40.8147 7.38151V14.0887H4.11279V14.0887Z" fill="#48BF5B"/>
<path d="M36.0464 4.77894L9.75415 11.3051L33.0505 0.655812C34.1219 0.181005 35.3541 0.838189 35.5569 1.9923L36.0464 4.77894Z" fill="#48BF5B"/>
</svg>
