<svg width="16" height="16" viewBox="0 0 16 16" fill="none" xmlns="http://www.w3.org/2000/svg">
<path d="M2 5.66699H10C11.8856 5.66699 12.8284 5.66699 13.4142 6.25278C14 6.83859 14 7.78139 14 9.66699V10.3337C14 12.2193 14 13.1621 13.4142 13.7479C12.8284 14.3337 11.8856 14.3337 10 14.3337H6C4.11438 14.3337 3.17157 14.3337 2.58579 13.7479C2 13.1621 2 12.2193 2 10.3337V5.66699Z" stroke="#8620C4" stroke-width="1.5" stroke-linecap="square" stroke-linejoin="round"/>
<path d="M10 5.66588V2.74053C10 2.14763 9.51933 1.66699 8.92647 1.66699C8.75573 1.66699 8.58747 1.70771 8.4356 1.78578L2.5082 4.83317C2.19616 4.9936 2 5.31501 2 5.66588" stroke="#8620C4" stroke-width="1.5" stroke-linecap="round" stroke-linejoin="round"/>
</svg>
