<svg width="17" height="16" viewBox="0 0 17 16" fill="none" xmlns="http://www.w3.org/2000/svg">
<path d="M13.1233 9.29719L12.6764 6.86486C12.4834 5.8143 12.3869 5.28901 12.0047 4.978C11.6225 4.66699 11.0735 4.66699 9.97547 4.66699H7.02457C5.92653 4.66699 5.37752 4.66699 4.99532 4.978C4.61312 5.28901 4.51661 5.8143 4.32359 6.86486L3.87671 9.29719C3.47605 11.4778 3.27573 12.5681 3.89259 13.2843C4.50946 14.0003 5.64903 14.0003 7.9282 14.0003H9.0718C11.351 14.0003 12.4905 14.0003 13.1074 13.2843C13.7243 12.5681 13.5239 11.4778 13.1233 9.29719Z" stroke="#EDEEF9" stroke-width="1.5" stroke-linecap="round"/>
<path d="M8.49992 7V11.3333M6.83325 10L8.49992 11.6667L10.1666 10" stroke="#EDEEF9" stroke-width="1.5" stroke-linecap="round" stroke-linejoin="round"/>
<path d="M14.4999 7.33333C14.6045 7.2806 14.6953 7.21413 14.7761 7.13033C15.1666 6.725 15.1666 6.07262 15.1666 4.76784C15.1666 3.46307 15.1666 2.81068 14.7761 2.40534C14.3855 2 13.757 2 12.4999 2H4.49992C3.24284 2 2.6143 2 2.22378 2.40534C1.83325 2.81068 1.83325 3.46307 1.83325 4.76784C1.83325 6.07262 1.83325 6.725 2.22378 7.13033C2.30451 7.21413 2.3954 7.2806 2.49992 7.33333" stroke="#EDEEF9" stroke-width="1.5" stroke-linecap="round"/>
</svg>
